<svg xmlns="http://www.w3.org/2000/svg" height="24" width="24"><rect id="backgroundrect" width="100%" height="100%" x="0" y="0" fill="none" stroke="none"/><g class="currentLayer" style=""><title>Layer 1</title><path d="M24 0H0v24h24z" fill="none" id="svg_1"/><path d="M17.66 7.93L12 2.27 6.34 7.93c-3.12 3.12-3.12 8.19 0 11.31C7.9 20.8 9.95 21.58 12 21.58c2.05 0 4.1-.78 5.66-2.34 3.12-3.12 3.12-8.19 0-11.31zM12 19.59c-1.6 0-3.11-.62-4.24-1.76C6.62 16.69 6 15.19 6 13.59s.62-3.11 1.76-4.24L12 5.1v14.49z" id="svg_2" class="" fill="#ffffff" fill-opacity="1"/></g></svg>