<svg xmlns="http://www.w3.org/2000/svg" height="24" width="24" style=""><rect id="backgroundrect" width="100%" height="100%" x="0" y="0" fill="none" stroke="none"/><g class="currentLayer" style=""><title>Layer 1</title><path d="M0 0h24v24H0z" fill="none" id="svg_1"/><path d="M19 3H5c-1.1 0-2 .9-2 2v14c0 1.1.9 2 2 2h14c1.1 0 2-.9 2-2V5c0-1.1-.9-2-2-2zm-4 8c0 1.11-.9 2-2 2h-2v2h4v2H9v-4c0-1.11.9-2 2-2h2V9H9V7h4c1.1 0 2 .89 2 2v2z" id="svg_2" class="selected" fill="#ffffff" fill-opacity="1"/></g></svg>